<?xml version="1.0" encoding="utf-8"?>
<!-- Generator: Adobe Illustrator 24.1.1, SVG Export Plug-In . SVG Version: 6.00 Build 0)  -->
<svg version="1.1" id="Layer_1" xmlns="http://www.w3.org/2000/svg" xmlns:xlink="http://www.w3.org/1999/xlink" x="0px" y="0px"
	 viewBox="0 0 512 512" style="enable-background:new 0 0 512 512;" xml:space="preserve">
<style type="text/css">
	.st0{fill:#1D4ED8;}
	.st1{fill:#6695B0;}
	.st2{fill:#FFFFFF;}
</style>
<g id="XMLID_1_">
	<path id="XMLID_3_" class="st0" d="M256,0c141,0,256,115,256,256S397,512,256,512S0,397,0,256S115,0,256,0"/>
	<path id="XMLID_4_" class="st1" d="M256.8,111.9c-9.5,0-18.9,4.7-26,14.2L115.8,271c-14.2,18.1-7.9,33.1,13.4,33.1h62.2v96.1
		c0,17.3,14.2,32.3,32.3,32.3h63.8c17.3,0,32.3-14.2,32.3-32.3V304H382c22.1,0,28.4-15,13.4-33.1L282.8,125.2
		C274.9,116.6,265.5,111.9,256.8,111.9"/>
	<path id="XMLID_5_" class="st2" d="M319.8,384.4c0,17.3-14.2,32.3-32.3,32.3h-63.8c-17.3,0-32.3-14.2-32.3-32.3V192.2
		c0-17.3,14.2-32.3,32.3-32.3h63.8c17.3,0,32.3,14.2,32.3,32.3V384.4z"/>
	<path id="XMLID_6_" class="st2" d="M130,288.3c-21.3,0-28.4-15-13.4-33.1l114.2-144.9c14.2-18.1,37.8-18.1,52,0L397,255.2
		c14.2,18.1,7.9,33.1-13.4,33.1H130z"/>
</g>
</svg>
